<svg width="48" height="48" viewBox="0 0 48 48" fill="none" xmlns="http://www.w3.org/2000/svg">
<path fill-rule="evenodd" clip-rule="evenodd" d="M28.4851 6.0597C29.5566 6.3276 30.2082 7.41347 29.9403 8.48506L21.9403 40.4851C21.6724 41.5566 20.5865 42.2082 19.5149 41.9403C18.4433 41.6724 17.7918 40.5865 18.0597 39.5149L26.0597 7.51491C26.3276 6.44332 27.4135 5.7918 28.4851 6.0597Z" fill="#032D69"/>
<path fill-rule="evenodd" clip-rule="evenodd" d="M32.5858 14.5858C33.3668 13.8047 34.6332 13.8047 35.4142 14.5858L42 21.1716C43.5621 22.7337 43.5621 25.2663 42 26.8284L35.4142 33.4142C34.6332 34.1953 33.3668 34.1953 32.5858 33.4142C31.8047 32.6332 31.8047 31.3668 32.5858 30.5858L39.1716 24L32.5858 17.4142C31.8047 16.6332 31.8047 15.3668 32.5858 14.5858Z" fill="#032D69"/>
<path fill-rule="evenodd" clip-rule="evenodd" d="M15.4142 14.5858C16.1953 15.3668 16.1953 16.6332 15.4142 17.4142L8.82843 24L15.4142 30.5858C16.1953 31.3668 16.1953 32.6332 15.4142 33.4142C14.6332 34.1953 13.3668 34.1953 12.5858 33.4142L6 26.8284C4.43791 25.2663 4.4379 22.7337 6 21.1716L12.5858 14.5858C13.3668 13.8047 14.6332 13.8047 15.4142 14.5858Z" fill="#032D69"/>
</svg>
