<svg width="44" height="44" viewBox="0 0 44 44" fill="none" xmlns="http://www.w3.org/2000/svg">
<path fill-rule="evenodd" clip-rule="evenodd" d="M9.16666 7.33342C8.68043 7.33342 8.21412 7.52657 7.8703 7.87039C7.52648 8.2142 7.33333 8.68052 7.33333 9.16675V34.074L11 30.4074C11.6876 29.7197 12.6203 29.3334 13.5927 29.3334H34.8333C35.3196 29.3334 35.7859 29.1403 36.1297 28.7964C36.4735 28.4526 36.6667 27.9863 36.6667 27.5001V9.16675C36.6667 8.68052 36.4735 8.2142 36.1297 7.87039C35.7859 7.52657 35.3196 7.33342 34.8333 7.33342H9.16666ZM5.27758 5.27766C6.30903 4.24621 7.70797 3.66675 9.16666 3.66675H34.8333C36.292 3.66675 37.691 4.24621 38.7224 5.27766C39.7539 6.30911 40.3333 7.70806 40.3333 9.16675V27.5001C40.3333 28.9588 39.7539 30.3577 38.7224 31.3892C37.691 32.4206 36.292 33.0001 34.8333 33.0001H13.5927L9.92605 36.6668C7.61618 38.9766 3.66666 37.3407 3.66666 34.074V9.16675C3.66666 7.70806 4.24613 6.30911 5.27758 5.27766Z" fill="#032D69"/>
<path fill-rule="evenodd" clip-rule="evenodd" d="M11 12.8333C11 11.8208 11.8208 11 12.8333 11H31.1667C32.1792 11 33 11.8208 33 12.8333C33 13.8459 32.1792 14.6667 31.1667 14.6667H12.8333C11.8208 14.6667 11 13.8459 11 12.8333Z" fill="#032D69"/>
<path fill-rule="evenodd" clip-rule="evenodd" d="M11 20.1666C11 19.1541 11.8208 18.3333 12.8333 18.3333H23.8333C24.8459 18.3333 25.6667 19.1541 25.6667 20.1666C25.6667 21.1791 24.8459 21.9999 23.8333 21.9999H12.8333C11.8208 21.9999 11 21.1791 11 20.1666Z" fill="#032D69"/>
</svg>
