<svg width="47" height="31" viewBox="0 0 47 31" fill="none" xmlns="http://www.w3.org/2000/svg">
<g clip-path="url(#clip0_1043_12207)">
<path d="M26.35 29.4499V26.3499C26.35 22.9257 23.5742 20.1499 20.15 20.1499H7.74999C4.32582 20.1499 1.54999 22.9257 1.54999 26.3499V29.4499" stroke="white" stroke-width="3.1" stroke-linecap="round" stroke-linejoin="round"/>
<path fill-rule="evenodd" clip-rule="evenodd" d="M13.95 13.95C17.3742 13.95 20.15 11.1742 20.15 7.75005C20.15 4.32588 17.3742 1.55005 13.95 1.55005C10.5258 1.55005 7.75 4.32588 7.75 7.75005C7.75 11.1742 10.5258 13.95 13.95 13.95Z" stroke="white" stroke-width="3.1" stroke-linecap="round" stroke-linejoin="round"/>
<path d="M35.65 29.2484V26.1484C35.6479 23.3229 33.7357 20.8563 31 20.1499" stroke="white" stroke-width="3.1" stroke-linecap="round" stroke-linejoin="round"/>
<path d="M44.95 29.2484V26.1484C44.9479 23.3229 43.0357 20.8563 40.3 20.1499" stroke="white" stroke-width="3.1" stroke-linecap="round" stroke-linejoin="round"/>
<path d="M24.8 1.55005C27.5434 2.25246 29.4621 4.72444 29.4621 7.5563C29.4621 10.3882 27.5434 12.8601 24.8 13.5625" stroke="white" stroke-width="3.1" stroke-linecap="round" stroke-linejoin="round"/>
<path d="M34.1 1.55005C36.8433 2.25246 38.7621 4.72444 38.7621 7.5563C38.7621 10.3882 36.8433 12.8601 34.1 13.5625" stroke="white" stroke-width="3.1" stroke-linecap="round" stroke-linejoin="round"/>
</g>
<defs>
<clipPath id="clip0_1043_12207">
<rect width="46.5" height="31" fill="white"/>
</clipPath>
</defs>
</svg>
