<svg width="41" height="41" viewBox="0 0 41 41" fill="none" xmlns="http://www.w3.org/2000/svg">
<path fill-rule="evenodd" clip-rule="evenodd" d="M6.62608 3.20933C7.5872 2.24821 8.89077 1.70825 10.25 1.70825H21.5007C22.4069 1.70825 23.2759 2.06822 23.9167 2.70897L34.8743 13.6666C35.515 14.3073 35.875 15.1764 35.875 16.0825V34.1666C35.875 35.5258 35.335 36.8294 34.3739 37.7905C33.4128 38.7516 32.1092 39.2916 30.75 39.2916H10.25C8.89076 39.2916 7.5872 38.7516 6.62608 37.7905C5.66495 36.8294 5.125 35.5258 5.125 34.1666V6.83325C5.125 5.47402 5.66495 4.17045 6.62608 3.20933ZM10.25 5.12492C9.79692 5.12492 9.3624 5.3049 9.04203 5.62528C8.72165 5.94565 8.54167 6.38017 8.54167 6.83325V34.1666C8.54167 34.6197 8.72165 35.0542 9.04203 35.3746C9.3624 35.6949 9.79692 35.8749 10.25 35.8749H30.75C31.2031 35.8749 31.6376 35.6949 31.958 35.3746C32.2783 35.0542 32.4583 34.6197 32.4583 34.1666V16.0825L21.5007 5.12492H10.25Z" fill="white"/>
<path fill-rule="evenodd" clip-rule="evenodd" d="M22.2083 1.70825C23.1518 1.70825 23.9167 2.4731 23.9167 3.41659V13.6666H34.1667C35.1102 13.6666 35.875 14.4314 35.875 15.3749C35.875 16.3184 35.1102 17.0833 34.1667 17.0833H23.9167C22.0297 17.0833 20.5 15.5536 20.5 13.6666V3.41659C20.5 2.4731 21.2648 1.70825 22.2083 1.70825Z" fill="white"/>
</svg>
