<?xml version="1.0" standalone="no"?>
<!DOCTYPE svg PUBLIC "-//W3C//DTD SVG 20010904//EN"
 "http://www.w3.org/TR/2001/REC-SVG-20010904/DTD/svg10.dtd">
<svg version="1.0" xmlns="http://www.w3.org/2000/svg"
 width="512.000000pt" height="512.000000pt" viewBox="0 0 512.000000 512.000000"
 preserveAspectRatio="xMidYMid meet">

<g transform="translate(0.000000,512.000000) scale(0.100000,-0.100000)"
fill="#000000" stroke="none">
<path d="M1662 3905 c-56 -113 -102 -207 -102 -210 0 -3 95 -5 210 -5 l210 0
-105 210 c-58 116 -106 210 -108 210 -1 0 -48 -92 -105 -205z"/>
<path d="M2595 3940 l-169 -169 55 -58 c30 -32 270 -285 534 -562 264 -277
481 -507 483 -512 3 -7 -960 -1184 -1052 -1287 l-20 -23 169 -169 c94 -94 173
-170 177 -170 3 0 317 369 698 821 621 738 690 823 678 839 -21 28 -1371 1460
-1378 1460 -3 0 -81 -76 -175 -170z"/>
<path d="M1550 2460 l0 -1130 215 0 215 0 0 1130 0 1130 -215 0 -215 0 0
-1130z"/>
<path d="M1550 1110 l0 -130 215 0 215 0 0 130 0 130 -215 0 -215 0 0 -130z"/>
</g>
</svg>
