<svg width="43" height="43" viewBox="0 0 43 43" fill="none" xmlns="http://www.w3.org/2000/svg">
<path d="M35.8692 21.2134H35.4212C34.0058 21.3209 32.6979 21.9122 31.6408 22.8976C31.5333 22.8976 31.4617 22.9155 31.4258 22.9155C31.3721 22.8438 31.2646 22.6647 31.175 22.2705V14.4947C31.175 13.5272 30.3687 12.7209 29.4012 12.7209H21.715C21.4642 12.6672 21.2671 12.6134 21.1237 12.5417C21.07 12.5059 21.0342 12.488 20.9983 12.4701C20.9983 12.4163 20.9983 12.3447 20.9983 12.2372C22.0912 11.0726 22.6825 9.5855 22.6825 8.02675C22.6825 4.56883 19.8875 1.79175 16.4475 1.79175C13.0075 1.79175 10.2125 4.60466 10.2125 8.02675C10.2125 9.5855 10.8217 11.0726 11.8967 12.2372C11.8967 12.3447 11.8967 12.4163 11.8967 12.4701C11.8787 12.488 11.825 12.5238 11.7712 12.5417C11.6458 12.6134 11.4667 12.6672 11.2517 12.7209H3.56541C2.59791 12.7388 1.79166 13.5272 1.79166 14.4947V22.4676C1.79166 22.4676 1.79166 22.6647 1.80958 22.7901C2.09625 24.2772 2.795 25.4417 3.88791 26.033C4.78375 26.5167 5.82291 26.5884 7.00541 26.2838C7.34583 26.1942 7.66833 25.9972 7.91916 25.6926C8.45666 25.0655 9.19125 24.7072 9.9975 24.7072C11.4846 24.7072 12.7029 25.9255 12.7029 27.4126C12.7029 28.8997 11.4846 30.118 9.9975 30.118C9.19125 30.118 8.43875 29.7597 7.91916 29.1326C7.68625 28.8459 7.36375 28.6488 7.04125 28.5592C6.30666 28.3801 5.10625 28.1651 3.92375 28.7922C2.83083 29.3834 2.15 30.548 1.84541 32.0172V32.0709V32.1247C1.84541 32.1247 1.84541 32.1605 1.84541 32.2142C1.84541 32.2142 1.79166 32.2859 1.79166 32.3576V40.3126C1.79166 41.2801 2.59791 42.0863 3.56541 42.0863H29.4192C30.3867 42.0863 31.1929 41.2801 31.1929 40.3126V32.6084C31.2287 32.4292 31.2825 32.2501 31.3362 32.0888C31.3721 31.9992 31.4079 31.9455 31.4258 31.9097C31.4796 31.9097 31.5512 31.9097 31.6587 31.9097C32.8233 33.0026 34.3104 33.5938 35.8692 33.5938C39.3092 33.5938 42.1042 30.7809 42.1042 27.3588C42.1042 23.9367 39.3092 21.2134 35.8692 21.2134ZM35.7975 30.1359C35.0271 30.1359 34.2925 29.7776 33.7908 29.1684C33.5579 28.8817 33.2533 28.6847 32.895 28.5772H32.8771C32.1425 28.398 30.9421 28.1651 29.7596 28.8101C28.6667 29.4013 27.9858 30.5659 27.6812 32.0351C27.6633 32.1605 27.6633 32.3038 27.6633 32.3755V38.5926H5.32125V32.6442C5.35708 32.4651 5.41083 32.2859 5.46458 32.1247C5.50041 32.0351 5.53625 31.9813 5.55416 31.9455C5.60791 31.9455 5.67958 31.9455 5.805 31.9455C6.96958 33.0384 8.45666 33.6297 10.0154 33.6297C13.4554 33.6297 16.2504 30.8167 16.2504 27.3947C16.2504 23.9726 13.4554 21.1597 10.0154 21.1597C8.43875 21.1597 6.95166 21.7688 5.78708 22.8438C5.67958 22.8438 5.60791 22.8617 5.57208 22.8617C5.51833 22.7901 5.41083 22.6109 5.32125 22.2167V16.2326H11.5204C11.6458 16.2326 11.7712 16.2147 11.8608 16.1967C13.3479 15.9101 14.4767 15.1934 15.0679 14.1363C15.5517 13.2405 15.6233 12.2013 15.3187 11.0188C15.2292 10.6426 15.0142 10.3201 14.7454 10.0872C14.1004 9.54966 13.76 8.81508 13.76 8.02675C13.76 6.52175 14.9783 5.32133 16.4654 5.32133C17.9525 5.32133 19.1708 6.53966 19.1708 8.02675C19.1708 8.833 18.8304 9.56758 18.1854 10.0872C17.8987 10.3201 17.6837 10.6605 17.6121 11.0188C17.3254 12.2013 17.3792 13.2405 17.8629 14.1363C18.4542 15.2113 19.5829 15.9101 21.0521 16.2147C21.1417 16.2147 21.2492 16.2505 21.3387 16.2684H21.3746H27.6096V22.4855C27.6096 22.4855 27.6096 22.6826 27.6275 22.808C27.9142 24.2951 28.6129 25.4597 29.7058 26.0509C30.6017 26.5347 31.6408 26.6063 32.8233 26.3017C33.1817 26.2122 33.5042 25.9972 33.7371 25.7284C34.2746 25.1013 35.0271 24.743 35.8154 24.743C37.3025 24.743 38.5208 25.9613 38.5208 27.4484C38.5208 28.9355 37.3204 30.1538 35.8154 30.1538L35.7975 30.1359Z" fill="#032D69"/>
</svg>
