<svg width="45" height="45" viewBox="0 0 45 45" fill="none" xmlns="http://www.w3.org/2000/svg">
<path fill-rule="evenodd" clip-rule="evenodd" d="M5.625 11.25C6.66053 11.25 7.5 10.4105 7.5 9.375C7.5 8.33947 6.66053 7.5 5.625 7.5C4.58947 7.5 3.75 8.33947 3.75 9.375C3.75 10.4105 4.58947 11.25 5.625 11.25Z" fill="white"/>
<path fill-rule="evenodd" clip-rule="evenodd" d="M39.375 26.25C40.4105 26.25 41.25 25.4105 41.25 24.375C41.25 23.3395 40.4105 22.5 39.375 22.5C38.3395 22.5 37.5 23.3395 37.5 24.375C37.5 25.4105 38.3395 26.25 39.375 26.25Z" fill="white"/>
<path fill-rule="evenodd" clip-rule="evenodd" d="M20.625 37.5C21.6605 37.5 22.5 36.6605 22.5 35.625C22.5 34.5895 21.6605 33.75 20.625 33.75C19.5895 33.75 18.75 34.5895 18.75 35.625C18.75 36.6605 19.5895 37.5 20.625 37.5Z" fill="white"/>
<path fill-rule="evenodd" clip-rule="evenodd" d="M11.25 22.5C12.2855 22.5 13.125 23.3395 13.125 24.375V35.625C13.125 36.6605 12.2855 37.5 11.25 37.5C10.2145 37.5 9.375 36.6605 9.375 35.625V24.375C9.375 23.3395 10.2145 22.5 11.25 22.5Z" fill="white"/>
<path fill-rule="evenodd" clip-rule="evenodd" d="M35.625 30C36.6605 30 37.5 30.8395 37.5 31.875V39.375C37.5 40.4105 36.6605 41.25 35.625 41.25C34.5895 41.25 33.75 40.4105 33.75 39.375V31.875C33.75 30.8395 34.5895 30 35.625 30Z" fill="white"/>
<path fill-rule="evenodd" clip-rule="evenodd" d="M3.75 30C3.75 28.9645 4.58947 28.125 5.625 28.125H16.875C17.9105 28.125 18.75 28.9645 18.75 30C18.75 31.0355 17.9105 31.875 16.875 31.875H5.625C4.58947 31.875 3.75 31.0355 3.75 30Z" fill="white"/>
<path fill-rule="evenodd" clip-rule="evenodd" d="M30 35.625C30 34.5895 30.8395 33.75 31.875 33.75H39.375C40.4105 33.75 41.25 34.5895 41.25 35.625C41.25 36.6605 40.4105 37.5 39.375 37.5H31.875C30.8395 37.5 30 36.6605 30 35.625Z" fill="white"/>
<path fill-rule="evenodd" clip-rule="evenodd" d="M26.1821 5.125L26.182 5.12453L26.182 5.12448L26.182 5.12445C25.957 4.3123 25.2178 3.75 24.375 3.75C23.5322 3.75 22.793 4.31234 22.568 5.12453L22.5679 5.125L22.5661 5.13128L22.5562 5.16605C22.5469 5.19841 22.5323 5.24874 22.5124 5.31508C22.4727 5.44788 22.4124 5.64427 22.3324 5.88882C22.1721 6.37947 21.9357 7.05597 21.6327 7.79728C20.9984 9.34919 20.1754 10.923 19.2992 11.7992C18.423 12.6754 16.8492 13.4984 15.2973 14.1327C14.556 14.4357 13.8795 14.6721 13.3888 14.8324C13.1443 14.9124 12.9479 14.9727 12.8151 15.0124C12.7487 15.0323 12.6984 15.0469 12.6661 15.0562L12.6313 15.0661L12.625 15.0679L12.6245 15.068L12.6245 15.068L12.6244 15.068C11.8123 15.293 11.25 16.0322 11.25 16.875C11.25 17.7178 11.8123 18.457 12.6245 18.682L12.625 18.6821L12.6313 18.6839L12.6661 18.6938C12.6984 18.7031 12.7487 18.7177 12.8151 18.7376C12.9479 18.7773 13.1443 18.8376 13.3888 18.9176C13.8795 19.0779 14.556 19.3143 15.2973 19.6173C16.8492 20.2516 18.423 21.0746 19.2992 21.9508C20.1754 22.827 20.9984 24.4008 21.6327 25.9527C21.9357 26.694 22.1721 27.3705 22.3324 27.8612C22.4124 28.1057 22.4727 28.3021 22.5124 28.4349C22.5323 28.5013 22.5469 28.5516 22.5562 28.584L22.5661 28.6187L22.5679 28.625L22.568 28.6255C22.5681 28.6257 22.5681 28.6259 22.5682 28.626C22.5682 28.6261 22.5682 28.6261 22.5682 28.6261C22.7933 29.4379 23.5324 30 24.375 30C25.2178 30 25.957 29.4377 26.182 28.6255L26.1821 28.625L26.1839 28.6187L26.1938 28.584C26.2031 28.5516 26.2177 28.5013 26.2376 28.4349C26.2773 28.3021 26.3376 28.1057 26.4176 27.8612C26.5779 27.3705 26.8143 26.694 27.1173 25.9527C27.7516 24.4008 28.5746 22.827 29.4508 21.9508C30.327 21.0746 31.9008 20.2516 33.4527 19.6173C34.194 19.3143 34.8705 19.0779 35.3612 18.9176C35.6057 18.8376 35.8021 18.7773 35.9349 18.7376C36.0013 18.7177 36.0516 18.7031 36.084 18.6938L36.1187 18.6839L36.125 18.6821L36.1255 18.682C36.9377 18.457 37.5 17.7178 37.5 16.875C37.5 16.0322 36.9377 15.293 36.1255 15.068L36.125 15.0679L36.1187 15.0661L36.084 15.0562C36.0516 15.0469 36.0013 15.0323 35.9349 15.0124C35.8021 14.9727 35.6057 14.9124 35.3612 14.8324C34.8705 14.6721 34.194 14.4357 33.4527 14.1327C31.9008 13.4984 30.327 12.6754 29.4508 11.7992C28.5746 10.923 27.7516 9.34919 27.1173 7.79728C26.8143 7.05597 26.5779 6.37947 26.4176 5.88882C26.3376 5.64427 26.2773 5.44788 26.2376 5.31508C26.2177 5.24874 26.2031 5.19841 26.1938 5.16605L26.1839 5.13128L26.1821 5.125ZM30.4039 16.875C29.1348 16.2518 27.7918 15.4434 26.7992 14.4508C25.8066 13.4582 24.9982 12.1152 24.375 10.8461C23.7518 12.1152 22.9434 13.4582 21.9508 14.4508C20.9582 15.4434 19.6152 16.2518 18.3461 16.875C19.6152 17.4982 20.9582 18.3066 21.9508 19.2992C22.9434 20.2918 23.7518 21.6348 24.375 22.9039C24.9982 21.6348 25.8066 20.2918 26.7992 19.2992C27.7918 18.3066 29.1348 17.4982 30.4039 16.875Z" fill="white"/>
</svg>
