<svg width="41" height="41" viewBox="0 0 41 41" fill="none" xmlns="http://www.w3.org/2000/svg">
<path fill-rule="evenodd" clip-rule="evenodd" d="M1.70833 5.125C2.65182 5.125 3.41667 5.88985 3.41667 6.83333V15.375H11.9583C12.9018 15.375 13.6667 16.1398 13.6667 17.0833C13.6667 18.0268 12.9018 18.7917 11.9583 18.7917H1.70833C0.764847 18.7917 0 18.0268 0 17.0833V6.83333C0 5.88985 0.764847 5.125 1.70833 5.125Z" fill="#032D69"/>
<path fill-rule="evenodd" clip-rule="evenodd" d="M27.3333 23.9167C27.3333 22.9732 28.0982 22.2084 29.0417 22.2084H39.2917C40.2352 22.2084 41 22.9732 41 23.9167V34.1667C41 35.1102 40.2352 35.875 39.2917 35.875C38.3482 35.875 37.5833 35.1102 37.5833 34.1667V25.625H29.0417C28.0982 25.625 27.3333 24.8602 27.3333 23.9167Z" fill="#032D69"/>
<path fill-rule="evenodd" clip-rule="evenodd" d="M15.7627 4.09343C18.5348 3.29159 21.4649 3.20506 24.2795 3.8419C27.0941 4.47874 29.7016 5.81821 31.8585 7.73531C34.0154 9.65241 35.6516 12.0847 36.6142 14.8051C36.929 15.6946 36.4631 16.6707 35.5737 16.9855C34.6842 17.3002 33.708 16.8343 33.3933 15.9449C32.6231 13.7685 31.3142 11.8227 29.5887 10.2891C27.8631 8.75537 25.7772 7.6838 23.5255 7.17433C21.2738 6.66486 18.9298 6.73409 16.7121 7.37556C14.4944 8.01703 12.4753 9.20984 10.8433 10.8427C10.8307 10.8553 10.8178 10.8677 10.8048 10.88L2.87817 18.3283C2.1906 18.9744 1.10946 18.9407 0.463385 18.2532C-0.182692 17.5656 -0.149057 16.4845 0.538512 15.8384L8.44617 8.40791C10.4828 6.37682 12.9994 4.89273 15.7627 4.09343ZM40.5366 22.7468C41.1827 23.4344 41.1491 24.5156 40.4615 25.1616L32.5538 32.5921C30.5172 34.6232 28.0006 36.1073 25.2373 36.9066C22.4652 37.7084 19.5351 37.795 16.7205 37.1581C13.9059 36.5213 11.2985 35.1818 9.14153 33.2647C6.9846 31.3476 5.34846 28.9154 4.38578 26.1949C4.07104 25.3055 4.53692 24.3293 5.42636 24.0145C6.3158 23.6998 7.29199 24.1657 7.60673 25.0551C8.37687 27.2315 9.68578 29.1773 11.4113 30.711C13.1369 32.2446 15.2228 33.3162 17.4745 33.8257C19.7262 34.3352 22.0702 34.2659 24.2879 33.6245C26.5056 32.983 28.5247 31.7902 30.1567 30.1573C30.1643 30.1497 30.172 30.1422 30.1797 30.1348C30.1848 30.1298 30.19 30.1249 30.1952 30.1201L38.1218 22.6717C38.8094 22.0256 39.8905 22.0593 40.5366 22.7468Z" fill="#032D69"/>
</svg>
