<svg width="44" height="44" viewBox="0 0 44 44" fill="none" xmlns="http://www.w3.org/2000/svg">
<path fill-rule="evenodd" clip-rule="evenodd" d="M33.2292 6.87492C30.3598 6.87492 27.1418 7.33102 24.8503 8.85868C23.6912 9.63144 22.2197 11.0778 20.6089 12.943C19.0238 14.7784 17.3966 16.909 15.9238 18.9483C14.4534 20.9842 13.1507 22.9098 12.215 24.3275C11.9463 24.7347 11.7081 25.0995 11.5053 25.4125L18.5875 32.4946C18.9004 32.2918 19.2652 32.0536 19.6724 31.7849C21.0901 30.8492 23.0157 29.5465 25.0516 28.0762C27.0909 26.6033 29.2215 24.9762 31.0569 23.3911C32.9221 21.7802 34.3685 20.3088 35.1413 19.1496C36.6689 16.8581 37.125 13.6402 37.125 10.7708C37.125 9.37188 37.0172 8.12991 36.9092 7.23875C36.9037 7.19392 36.8983 7.15001 36.8929 7.10704C36.8499 7.10163 36.806 7.0962 36.7612 7.09076C35.87 6.98274 34.6281 6.87492 33.2292 6.87492ZM38.5 5.49992C40.2977 5.14037 40.2978 5.14085 40.2979 5.14136L40.2988 5.14558L40.3005 5.15415L40.3057 5.18123L40.3231 5.27418C40.3375 5.35297 40.3573 5.46503 40.3807 5.60716C40.4274 5.89127 40.4885 6.29655 40.5492 6.79754C40.6703 7.79701 40.7917 9.19046 40.7917 10.7708C40.7917 13.8597 40.3311 17.975 38.1921 21.1835C37.1315 22.7744 35.3696 24.5113 33.4535 26.1661C31.5077 27.8466 29.2841 29.5423 27.1984 31.0487C25.1093 32.5575 23.1391 33.8902 21.6922 34.8451C20.9682 35.323 20.3738 35.7072 19.9594 35.9725C19.7521 36.1053 19.5898 36.2083 19.4787 36.2786L19.3511 36.359L19.3176 36.38L19.3062 36.3872C19.3059 36.3873 19.305 36.3879 18.3333 34.8333L19.3062 36.3872C18.5822 36.8397 17.6406 36.7333 17.037 36.1296L7.87031 26.9629C7.26665 26.3593 7.15955 25.4189 7.61201 24.6949L9.16668 25.6666C7.61201 24.6949 7.61187 24.6952 7.61201 24.6949L7.61989 24.6823L7.64093 24.6488L7.72136 24.5213C7.79162 24.4101 7.89467 24.2478 8.02738 24.0406C8.29275 23.6261 8.67693 23.0318 9.15479 22.3077C10.1097 20.8608 11.4425 18.8906 12.9513 16.8015C14.4576 14.7158 16.1533 12.4923 17.8339 10.5464C19.4886 8.63035 21.2255 6.8684 22.8164 5.80783C26.0249 3.66882 30.1403 3.20825 33.2292 3.20825C34.8095 3.20825 36.2029 3.32959 37.2024 3.45074C37.7034 3.51147 38.1087 3.57255 38.3928 3.61925C38.5349 3.64261 38.647 3.66242 38.7258 3.67684L38.8187 3.69422L38.8458 3.69946L38.8544 3.70115L38.8574 3.70175C38.8579 3.70185 38.8596 3.70219 38.5 5.49992ZM38.5 5.49992L38.8596 3.70219C39.5853 3.84734 40.1528 4.41561 40.2979 5.14136L38.5 5.49992Z" fill="#032D69"/>
<path fill-rule="evenodd" clip-rule="evenodd" d="M25.6667 14.6667C25.6667 12.6416 27.3083 11 29.3333 11C31.3584 11 33 12.6416 33 14.6667C33 16.6917 31.3584 18.3333 29.3333 18.3333C27.3083 18.3333 25.6667 16.6917 25.6667 14.6667Z" fill="#032D69"/>
<path fill-rule="evenodd" clip-rule="evenodd" d="M14.0259 13.5118C12.1069 13.3199 10.1731 13.7122 8.8588 15.6836C7.21983 18.1421 6.87505 20.0817 6.87505 21.3125C6.87505 21.8303 6.93612 22.2421 7.0013 22.5343L9.98656 24.0269C10.8922 24.4797 11.2593 25.581 10.8064 26.4866C10.3536 27.3922 9.25239 27.7593 8.34676 27.3065L4.68013 25.4731C4.32533 25.2957 4.03764 25.008 3.86024 24.6532L5.50003 23.8334C3.86024 24.6532 3.8591 24.6509 3.8591 24.6509L3.85791 24.6486L3.85543 24.6435L3.84997 24.6324L3.83723 24.6058C3.82794 24.5861 3.81712 24.5627 3.80501 24.5354C3.78079 24.4809 3.75136 24.4112 3.7187 24.3269C3.65341 24.1582 3.575 23.9302 3.49944 23.6469C3.34817 23.0796 3.20838 22.2903 3.20838 21.3125C3.20839 19.335 3.78027 16.6913 5.80793 13.6497C8.16028 10.1212 11.7264 9.59685 14.3908 9.86329C15.72 9.99622 16.8959 10.3252 17.7299 10.6139C18.1506 10.7595 18.4936 10.8981 18.7368 11.003C18.8586 11.0555 18.956 11.0997 19.0261 11.1325C19.0613 11.1489 19.0896 11.1625 19.1109 11.1728L19.1375 11.1858L19.1468 11.1903L19.1503 11.1921C19.1503 11.1921 17.3199 12.1102 16.5 13.75" fill="#032D69"/>
<path fill-rule="evenodd" clip-rule="evenodd" d="M30.3468 24.027C31.2524 23.5741 32.3536 23.9412 32.8064 24.8469L31.1667 25.6667C32.8064 24.8469 32.8061 24.8462 32.8064 24.8469L32.8097 24.8534L32.8143 24.8626L32.8272 24.8892C32.8375 24.9105 32.8511 24.9388 32.8675 24.974C32.9003 25.0442 32.9446 25.1415 32.9971 25.2633C33.1019 25.5065 33.2405 25.8495 33.3861 26.2702C33.6748 27.1042 34.0038 28.28 34.1367 29.6093C34.4032 32.2737 33.8788 35.8398 30.3503 38.1922C27.3088 40.2199 24.665 40.7917 22.6875 40.7917C21.7097 40.7917 20.9204 40.6519 20.3531 40.5007C20.0698 40.4251 19.8418 40.3467 19.6731 40.2814C19.5888 40.2487 19.5191 40.2193 19.4646 40.1951C19.4373 40.183 19.4139 40.1722 19.3942 40.1629L19.3676 40.1501L19.3565 40.1447L19.3514 40.1422L19.3491 40.141C19.3479 40.1404 19.3468 40.1399 20.1667 38.5001L19.3468 40.1399C18.992 39.9625 18.7043 39.6748 18.5269 39.32L16.6935 35.6533C16.2407 34.7477 16.6078 33.6464 17.5134 33.1936C18.4191 32.7408 19.5203 33.1079 19.9731 34.0135L21.4658 36.9988C21.758 37.064 22.1697 37.1251 22.6875 37.1251C23.9183 37.1251 25.8579 36.7803 28.3164 35.1413C30.2878 33.827 30.6802 31.8932 30.4883 29.9742C30.392 29.0118 30.1481 28.1251 29.9212 27.4696C29.809 27.1454 29.7041 26.8869 29.6299 26.7147C29.5929 26.6288 29.5637 26.5651 29.5455 26.526L29.5268 26.4866C29.0749 25.5812 29.4415 24.4796 30.3468 24.027Z" fill="#032D69"/>
<path fill-rule="evenodd" clip-rule="evenodd" d="M23.2964 20.7037C24.0123 21.4197 24.0123 22.5805 23.2964 23.2964L15.0464 31.5464C14.3304 32.2624 13.1696 32.2624 12.4536 31.5464C11.7377 30.8305 11.7377 29.6697 12.4536 28.9537L20.7036 20.7037C21.4196 19.9878 22.5804 19.9878 23.2964 20.7037Z" fill="#032D69"/>
<path fill-rule="evenodd" clip-rule="evenodd" d="M8.86916 34.8334C8.7411 34.8334 8.62741 34.9154 8.58692 35.0368L8.39876 35.6013L8.96324 35.4132C9.08473 35.3727 9.16667 35.259 9.16667 35.1309C9.16667 34.9666 9.03347 34.8334 8.86916 34.8334ZM5.10841 33.8773C5.64799 32.2586 7.16285 31.1668 8.86914 31.1667C11.0585 31.1667 12.8333 32.9416 12.8333 35.1309C12.8333 36.8372 11.7415 38.3521 10.1227 38.8917L6.07975 40.2393C5.42097 40.4589 4.69466 40.2875 4.20364 39.7964C3.71261 39.3054 3.54116 38.5791 3.76075 37.9203L5.10841 33.8773Z" fill="#032D69"/>
</svg>
