<svg width="53" height="53" viewBox="0 0 53 53" fill="none" xmlns="http://www.w3.org/2000/svg">
<path fill-rule="evenodd" clip-rule="evenodd" d="M11.0417 8.83329C11.0417 6.39404 13.0191 4.41663 15.4583 4.41663H17.6667C18.9343 4.41663 19.9633 4.96446 20.6962 5.54157C21.4283 6.11811 22.0013 6.82759 22.4173 7.4351C22.7146 7.86924 23.6118 8.83329 26.5 8.83329C29.3882 8.83329 30.2854 7.86924 30.5827 7.4351C30.9987 6.82759 31.5717 6.11811 32.3038 5.54157C33.0367 4.96446 34.0657 4.41663 35.3333 4.41663H37.5417C39.9809 4.41663 41.9583 6.39404 41.9583 8.83329V44.1666C41.9583 46.6059 39.9809 48.5833 37.5417 48.5833H35.3333C34.0657 48.5833 33.0367 48.0355 32.3038 47.4583C31.5717 46.8818 30.9987 46.1723 30.5827 45.5648C30.2854 45.1307 29.3882 44.1666 26.5 44.1666C23.6118 44.1666 22.7146 45.1307 22.4173 45.5648C22.0013 46.1723 21.4283 46.8818 20.6962 47.4583C19.9633 48.0355 18.9343 48.5833 17.6667 48.5833H15.4583C13.0191 48.5833 11.0417 46.6059 11.0417 44.1666V8.83329ZM17.6587 8.83329L15.4583 8.83329V44.1666H17.6587C17.6798 44.1623 17.7782 44.1345 17.9636 43.9885C18.2186 43.7876 18.5001 43.4682 18.7732 43.0694C20.0536 41.1996 22.462 39.75 26.5 39.75C30.538 39.75 32.9464 41.1996 34.2268 43.0694C34.4999 43.4682 34.7814 43.7876 35.0364 43.9885C35.2218 44.1344 35.3202 44.1623 35.3413 44.1666H37.5417V8.83329H35.3413C35.3202 8.83765 35.2218 8.86546 35.0364 9.01146C34.7814 9.21227 34.4999 9.53171 34.2268 9.93052C32.9464 11.8003 30.538 13.25 26.5 13.25C22.462 13.25 20.0536 11.8003 18.7732 9.93052C18.5001 9.53171 18.2186 9.21227 17.9636 9.01146C17.7782 8.86546 17.6798 8.83765 17.6587 8.83329Z" fill="#032D69"/>
<path fill-rule="evenodd" clip-rule="evenodd" d="M11.0417 35.3333C11.0417 34.1137 12.0304 33.125 13.25 33.125H39.75C40.9696 33.125 41.9583 34.1137 41.9583 35.3333C41.9583 36.553 40.9696 37.5417 39.75 37.5417H13.25C12.0304 37.5417 11.0417 36.553 11.0417 35.3333Z" fill="#032D69"/>
</svg>
