<svg width="1512" height="571" viewBox="0 0 1512 571" fill="none" xmlns="http://www.w3.org/2000/svg">
<path fill-rule="evenodd" clip-rule="evenodd" d="M-134.476 428.336C-140.283 428.68 -145.765 429.008 -150.907 429.32C-156.465 406.853 -158.939 385.03 -157.919 364.097C-161.007 343.368 -160.706 321.406 -157.402 298.5C-152.253 298.301 -146.766 298.084 -140.953 297.852C-104.813 225.503 -9.11037 170.74 170.281 148.084C283.606 133.752 385.964 160.4 488.098 186.99C571.595 208.727 654.942 230.425 744.011 229.664C921 228.149 1058.04 154.255 1175.82 90.7465C1259.95 45.3792 1334.26 5.31194 1406.28 0.715682C1522.36 -6.69491 1640.25 76.9311 1681.95 207.316C1684.76 207.135 1687.5 206.957 1690.19 206.782C1694.13 229.099 1695.87 250.919 1695.66 272.08C1697.97 293.117 1698.39 315.004 1696.68 337.602C1693.99 337.693 1691.24 337.788 1688.43 337.886C1659.85 471.759 1550.82 566.651 1434.58 570.773C1362.46 573.332 1284.55 540.821 1196.33 504.01C1072.84 452.478 929.16 392.52 752.891 408.541C664.184 416.605 583.396 446.452 502.463 476.352C403.464 512.926 304.249 549.58 190.061 546.543C9.30803 541.765 -91.348 496.75 -134.476 428.336Z" fill="#FEE6EE"/>
</svg>
