<svg width="1512" height="793" viewBox="0 0 1512 793" fill="none" xmlns="http://www.w3.org/2000/svg">
<path fill-rule="evenodd" clip-rule="evenodd" d="M-134.185 327.41C-140.577 326.508 -146.611 325.662 -152.274 324.874C-152.129 291.559 -148.818 259.898 -141.962 230.343C-139.617 200.093 -133.258 168.901 -123.382 137.083C-117.744 138.034 -111.735 139.041 -105.367 140.102C-46.3026 45.7667 72.5225 -9.26139 273.282 1.46922C400.111 8.2213 503.79 70.6824 607.244 133.008C691.818 183.959 776.241 234.82 873.039 255.078C1065.39 295.329 1234.29 222.971 1379.46 160.782C1483.16 116.358 1574.75 77.1232 1654.11 87.8364C1782.02 105.101 1886.9 252.398 1896.3 448.003C1899.39 448.419 1902.42 448.823 1905.38 449.216C1903.59 480.804 1899.74 509.85 1894.09 536.496C1890.94 569.206 1885.17 602.815 1876.49 637.007C1871.43 636.121 1866.16 635.206 1860.7 634.264C1791.12 772.85 1653.91 808.428 1531.08 787.197C1453.7 773.823 1379.06 730.963 1294.96 682.675C1173.27 612.795 1031.78 531.549 833.533 511.852C735.123 502.077 639.315 525.209 543.337 548.381C425.933 576.727 308.274 605.134 185.28 573.45C-9.41997 523.338 -106.209 435.137 -134.185 327.41Z" fill="#FEE6EE"/>
</svg>
